<svg xmlns="http://www.w3.org/2000/svg"  viewBox="0 0 100 100" width="200px" height="200px"><circle cx="13" cy="29" r="2" fill="#ee3e54"/><circle cx="77" cy="13" r="1" fill="#f1bc19"/><circle cx="50" cy="50" r="37" fill="#fce0a2"/><circle cx="83" cy="15" r="4" fill="#f1bc19"/><circle cx="87" cy="24" r="2" fill="#ee3e54"/><circle cx="81" cy="76" r="2" fill="#fbcd59"/><circle cx="15" cy="63" r="4" fill="#fbcd59"/><circle cx="25" cy="87" r="2" fill="#ee3e54"/><circle cx="18.5" cy="53.5" r="2.5" fill="#fff"/><circle cx="21" cy="67" r="1" fill="#f1bc19"/><circle cx="80" cy="34" r="1" fill="#fff"/><path fill="#edf7f5" d="M37.631,71.323c-4.479,0-8.123-3.644-8.123-8.123V36.8c0-4.479,3.644-8.123,8.123-8.123h26.4	c4.479,0,8.123,3.644,8.123,8.123v26.4c0,4.479-3.644,8.123-8.123,8.123H37.631z"/><path fill="#472b29" d="M65,29.4c3.639,0,6.6,2.961,6.6,6.6v28c0,3.639-2.961,6.6-6.6,6.6H37c-3.639,0-6.6-2.961-6.6-6.6V36	c0-3.639,2.961-6.6,6.6-6.6H65 M65,28H37c-4.418,0-8,3.582-8,8v28c0,4.418,3.582,8,8,8h28c4.418,0,8-3.582,8-8V36	C73,31.582,69.418,28,65,28L65,28z"/><path fill="#472b29" d="M63.771,68h-5.893c-0.276,0-0.5-0.224-0.5-0.5s0.224-0.5,0.5-0.5h5.893 C66.103,67,68,65.103,68,62.771V51.096c0-0.276,0.224-0.5,0.5-0.5s0.5,0.224,0.5,0.5v11.675C69,65.654,66.654,68,63.771,68z M54.877,68h-2c-0.276,0-0.5-0.224-0.5-0.5s0.224-0.5,0.5-0.5h2c0.276,0,0.5,0.224,0.5,0.5S55.154,68,54.877,68z M49.877,68H38.229 C35.346,68,33,65.654,33,62.771v-6.92c0-0.276,0.224-0.5,0.5-0.5s0.5,0.224,0.5,0.5v6.92C34,65.103,35.897,67,38.229,67h11.648 c0.276,0,0.5,0.224,0.5,0.5S50.154,68,49.877,68z M33.5,51.351c-0.276,0-0.5-0.224-0.5-0.5V37.229C33,34.346,35.346,32,38.229,32 h3.947c0.276,0,0.5,0.224,0.5,0.5s-0.224,0.5-0.5,0.5h-3.947C35.897,33,34,34.897,34,37.229v13.621 C34,51.127,33.776,51.351,33.5,51.351z M61.771,33H50.176c-0.276,0-0.5-0.224-0.5-0.5s0.224-0.5,0.5-0.5h11.594 c0.276,0,0.5,0.224,0.5,0.5S62.047,33,61.771,33z M47.176,33h-2c-0.276,0-0.5-0.224-0.5-0.5s0.224-0.5,0.5-0.5h2 c0.276,0,0.5,0.224,0.5,0.5S47.453,33,47.176,33z"/><path fill="#39c1d7" d="M38.973,40.75c-0.511,0-0.927-0.448-0.927-1s0.416-1,0.927-1h23.016c0.511,0,0.927,0.448,0.927,1 s-0.416,1-0.927,1H38.973z"/><path fill="#39c1d7" d="M61.989,39c0.374,0,0.677,0.336,0.677,0.75s-0.303,0.75-0.677,0.75H38.973 c-0.374,0-0.677-0.336-0.677-0.75S38.6,39,38.973,39H61.989 M61.989,38.5H38.973c-0.649,0-1.177,0.561-1.177,1.25 S38.324,41,38.973,41h23.015c0.649,0,1.177-0.561,1.177-1.25S62.638,38.5,61.989,38.5L61.989,38.5z"/><path fill="#39c1d7" d="M38.973,47.25c-0.511,0-0.927-0.448-0.927-1s0.416-1,0.927-1h23.016c0.511,0,0.927,0.448,0.927,1 s-0.416,1-0.927,1H38.973z"/><path fill="#39c1d7" d="M61.989,45.5c0.374,0,0.677,0.336,0.677,0.75S62.362,47,61.989,47H38.973 c-0.374,0-0.677-0.336-0.677-0.75s0.303-0.75,0.677-0.75H61.989 M61.989,45H38.973c-0.649,0-1.177,0.561-1.177,1.25 s0.528,1.25,1.177,1.25h23.015c0.649,0,1.177-0.561,1.177-1.25S62.638,45,61.989,45L61.989,45z"/><path fill="#39c1d7" d="M38.973,53.75c-0.511,0-0.927-0.448-0.927-1s0.416-1,0.927-1h22.338c0.511,0,0.927,0.448,0.927,1 s-0.416,1-0.927,1H38.973z"/><path fill="#39c1d7" d="M61.312,52c0.374,0,0.677,0.336,0.677,0.75s-0.303,0.75-0.677,0.75H38.973 c-0.374,0-0.677-0.336-0.677-0.75S38.6,52,38.973,52H61.312 M61.312,51.5H38.973c-0.649,0-1.177,0.561-1.177,1.25 S38.324,54,38.973,54h22.338c0.649,0,1.177-0.561,1.177-1.25S61.961,51.5,61.312,51.5L61.312,51.5z"/><g><path fill="#39c1d7" d="M51.711,63.639c-1.39,0-2.686-0.623-3.555-1.708l-0.521-0.649c-0.457-0.571-1.108-0.926-1.835-0.999 c-0.093-0.01-0.185-0.014-0.277-0.014c-0.636,0-1.231,0.216-1.722,0.625l-0.398,0.331c-0.814,0.68-1.849,1.054-2.912,1.054h-1.519 c-0.511,0-0.927-0.416-0.927-0.927s0.416-0.927,0.927-0.927h1.519c0.631,0,1.244-0.222,1.726-0.625l0.399-0.332 c0.817-0.681,1.847-1.055,2.901-1.055c0.156,0,0.313,0.008,0.47,0.023c1.226,0.124,2.326,0.723,3.096,1.686l0.521,0.65 c0.515,0.644,1.283,1.013,2.107,1.013s1.592-0.369,2.106-1.013c0.178-0.221,0.442-0.348,0.725-0.348 c0.209,0,0.415,0.072,0.578,0.203c0.193,0.154,0.315,0.375,0.342,0.621s-0.043,0.488-0.198,0.682 C54.398,63.016,53.103,63.639,51.711,63.639z"/><path fill="#39c1d7" d="M45.516,58.663c0.148,0,0.297,0.008,0.446,0.023c1.16,0.117,2.199,0.683,2.927,1.593l0.521,0.65 c0.563,0.703,1.402,1.107,2.302,1.107c0.9,0,1.74-0.403,2.302-1.106c0.134-0.167,0.331-0.254,0.529-0.254 c0.148,0,0.298,0.048,0.422,0.148c0.292,0.234,0.339,0.659,0.106,0.951c-0.82,1.026-2.044,1.615-3.359,1.615 c-1.314,0-2.538-0.588-3.36-1.615l-0.521-0.65c-0.499-0.624-1.211-1.011-2.006-1.092c-0.1-0.01-0.2-0.015-0.3-0.015 c-0.69,0-1.347,0.236-1.884,0.683l-0.398,0.331c-0.77,0.642-1.748,0.996-2.752,0.996h-1.518c-0.374,0-0.677-0.303-0.677-0.677 s0.303-0.677,0.677-0.677h1.518c0.688,0,1.359-0.242,1.887-0.683l0.398-0.331C43.555,59.011,44.518,58.663,45.516,58.663 M45.516,58.163c-1.112,0-2.198,0.396-3.06,1.114l-0.398,0.331c-0.439,0.366-0.995,0.567-1.567,0.567h-1.518 c-0.649,0-1.177,0.528-1.177,1.177c0,0.649,0.528,1.177,1.177,1.177h1.518c1.122,0,2.213-0.395,3.073-1.113l0.397-0.331 c0.446-0.371,0.987-0.567,1.564-0.567c0.083,0,0.167,0.004,0.251,0.012c0.659,0.067,1.25,0.389,1.664,0.906l0.521,0.65 c0.916,1.145,2.283,1.802,3.75,1.802c1.467,0,2.834-0.657,3.75-1.802c0.196-0.245,0.285-0.552,0.251-0.865 c-0.035-0.312-0.189-0.592-0.434-0.789c-0.208-0.166-0.469-0.258-0.735-0.258c-0.359,0-0.694,0.161-0.919,0.441 c-0.467,0.584-1.164,0.919-1.912,0.919S50.267,61.2,49.8,60.616l-0.521-0.65c-0.812-1.016-1.973-1.647-3.267-1.778 C45.847,58.171,45.681,58.163,45.516,58.163L45.516,58.163z"/></g><g><path fill="#472b29" d="M49.989,38.5h-3c-0.138,0-0.25,0.112-0.25,0.25S46.851,39,46.989,39h3c0.138,0,0.25-0.112,0.25-0.25 S50.127,38.5,49.989,38.5L49.989,38.5z M61.989,38.5h-10c-0.138,0-0.25,0.112-0.25,0.25S51.851,39,51.989,39h10l0,0 c0.374,0,0.677,0.336,0.677,0.75l0,0l0,0c0,0.414-0.303,0.75-0.677,0.75H38.973c-0.374,0-0.677-0.336-0.677-0.75l0,0l0,0 c0-0.414,0.303-0.75,0.677-0.75h6.015c0.138,0,0.25-0.112,0.25-0.25s-0.112-0.25-0.25-0.25h-6.015c-0.649,0-1.177,0.561-1.177,1.25 S38.324,41,38.973,41h23.015c0.649,0,1.177-0.561,1.177-1.25S62.638,38.5,61.989,38.5L61.989,38.5z"/></g><g><path fill="#472b29" d="M49.989,45h-3c-0.138,0-0.25,0.112-0.25,0.25s0.112,0.25,0.25,0.25h3c0.138,0,0.25-0.112,0.25-0.25 S50.127,45,49.989,45L49.989,45z M61.989,45h-10c-0.138,0-0.25,0.112-0.25,0.25s0.112,0.25,0.25,0.25h10l0,0 c0.374,0,0.677,0.336,0.677,0.75l0,0l0,0c0,0.414-0.303,0.75-0.677,0.75H38.973c-0.374,0-0.677-0.336-0.677-0.75l0,0l0,0 c0-0.414,0.303-0.75,0.677-0.75h6.015c0.138,0,0.25-0.112,0.25-0.25S45.127,45,44.989,45h-6.015c-0.649,0-1.177,0.561-1.177,1.25 s0.528,1.25,1.177,1.25h23.015c0.649,0,1.177-0.561,1.177-1.25S62.638,45,61.989,45L61.989,45z"/></g><g><path fill="#472b29" d="M44.312,51.5h-3c-0.138,0-0.25,0.112-0.25,0.25S41.174,52,41.312,52h3c0.138,0,0.25-0.112,0.25-0.25 S44.45,51.5,44.312,51.5L44.312,51.5z M61.312,51.5h-15c-0.138,0-0.25,0.112-0.25,0.25S46.174,52,46.312,52h15l0,0 c0.374,0,0.677,0.336,0.677,0.75l0,0l0,0c0,0.414-0.303,0.75-0.677,0.75H38.973c-0.374,0-0.677-0.336-0.677-0.75l0,0l0,0 c0-0.414,0.303-0.75,0.677-0.75h0.338c0.138,0,0.25-0.112,0.25-0.25s-0.112-0.25-0.25-0.25h-0.338c-0.649,0-1.177,0.561-1.177,1.25 S38.324,54,38.973,54h22.338c0.649,0,1.177-0.561,1.177-1.25S61.961,51.5,61.312,51.5L61.312,51.5z"/></g><g><path fill="#472b29" d="M38.061,60.935c-0.118,0-0.224,0.085-0.246,0.205c-0.012,0.068-0.019,0.139-0.019,0.211 c0,0.649,0.528,1.177,1.177,1.177h1.518c0.11,0,0.22-0.004,0.33-0.011c0.138-0.01,0.242-0.129,0.232-0.267 c-0.009-0.132-0.119-0.233-0.249-0.233c-0.006,0-0.011,0-0.017,0.001c-0.006,0-0.012,0.001-0.018,0.001c0,0,0,0-0.001,0 c-0.001,0-0.002,0-0.003,0c0,0-0.002,0-0.002,0c-0.001,0-0.002,0-0.003,0c-0.001,0-0.002,0-0.003,0c0,0-0.001,0-0.002,0 c-0.004,0-0.007,0-0.011,0.001h-0.001c-0.002,0-0.004,0-0.005,0h0c-0.057,0.003-0.113,0.005-0.17,0.006l0,0 c-0.006,0-0.012,0-0.017,0c0,0,0,0,0,0c-0.002,0-0.004,0-0.005,0h-0.001c-0.002,0-0.003,0-0.005,0h-0.001c-0.002,0-0.004,0-0.006,0 h0c-0.002,0-0.003,0-0.005,0h-0.001c-0.001,0-0.003,0-0.004,0c0,0-0.001,0-0.001,0c-0.002,0-0.003,0-0.005,0h-0.001 c-0.002,0-0.004,0-0.005,0c0,0-0.001,0-0.001,0c-0.001,0-0.003,0-0.004,0c0,0-0.001,0-0.002,0c-0.001,0-0.003,0-0.004,0 c-0.001,0-0.001,0-0.001,0c-0.002,0-0.004,0-0.006,0l0,0h-1.518c-0.374,0-0.677-0.303-0.677-0.677l0,0l0,0c0,0,0-0.001,0-0.002 v-0.001c0,0,0-0.001,0-0.001c0,0,0,0,0-0.001c0,0,0-0.001,0-0.001c0,0,0-0.001,0-0.001c0,0,0-0.001,0-0.001c0,0,0-0.001,0-0.001 v-0.001V61.34l0-0.001v-0.001c0,0,0-0.001,0-0.001c0,0,0,0,0,0c0-0.001,0-0.001,0-0.002l0,0c0-0.001,0-0.001,0-0.002c0,0,0,0,0,0 V61.33l0-0.001l0-0.001v-0.001l0-0.001c0,0,0,0,0,0c0-0.001,0-0.001,0-0.001c0-0.001,0-0.001,0-0.001c0-0.001,0-0.001,0-0.002 v-0.001c0-0.001,0-0.001,0-0.002l0,0c0-0.001,0-0.001,0-0.001v-0.001c0-0.001,0-0.001,0-0.002v0c0,0,0-0.001,0-0.002l0,0 c0,0,0-0.001,0-0.002l0,0c0,0,0-0.001,0-0.002l0-0.001c0,0,0-0.001,0-0.001l0,0c0-0.001,0-0.001,0-0.002c0,0,0,0,0,0l0-0.002l0,0 c0-0.002,0-0.004,0-0.006v0c0-0.001,0-0.001,0-0.002v0c0-0.001,0-0.001,0-0.002v0c0-0.001,0-0.001,0-0.001l0-0.001 c0-0.001,0-0.001,0-0.001l0-0.001c0.002-0.019,0.004-0.038,0.008-0.057c0.025-0.136-0.065-0.266-0.201-0.291 C38.091,60.936,38.076,60.935,38.061,60.935L38.061,60.935z M45.526,60.018c-0.69,0-1.347,0.236-1.884,0.683l0,0 c0,0-0.006,0.005-0.017,0.014l0,0c-0.011,0.009-0.026,0.022-0.045,0.037l0,0c-0.019,0.016-0.04,0.034-0.064,0.053l0,0 c-0.023,0.019-0.048,0.04-0.073,0.061l0,0c-0.025,0.021-0.05,0.041-0.073,0.061l0,0c-0.023,0.019-0.044,0.036-0.062,0.051 l-0.003,0.003c-0.001,0.001-0.002,0.002-0.004,0.003l-0.003,0.002c0,0-0.002,0.001-0.003,0.002l-0.007,0.006 c-0.001,0-0.001,0.001-0.001,0.001l-0.004,0.003l0,0l-0.012,0.01c-0.001,0-0.001,0.001-0.002,0.002l-0.001,0.001l-0.001,0.001 l-0.002,0.002l0,0l-0.004,0.003l0,0l-0.001,0.001c0,0,0,0,0,0l-0.006,0.005l0,0l-0.003,0.002l0,0l-0.001,0l0,0l-0.002,0.002 l-0.001,0.001l0,0l0,0l0,0l0,0l-0.001,0.001c-0.002,0.001-0.003,0.003-0.005,0.004l-0.001,0.001 c-0.001,0.001-0.002,0.002-0.003,0.003c-0.001,0-0.001,0.001-0.002,0.001c-0.001,0.001-0.002,0.002-0.003,0.003 c-0.001,0-0.001,0.001-0.002,0.002c-0.001,0.001-0.002,0.002-0.003,0.003c-0.001,0-0.001,0.001-0.002,0.001 c-0.001,0.001-0.002,0.002-0.003,0.003c-0.001,0-0.001,0.001-0.002,0.001c-0.001,0.001-0.002,0.002-0.003,0.003 c0,0-0.001,0.001-0.001,0.001c-0.002,0.001-0.003,0.002-0.005,0.004c0,0,0,0,0,0c-0.002,0.001-0.003,0.003-0.005,0.004l0,0 c-0.002,0.001-0.003,0.003-0.005,0.004c0,0-0.001,0.001-0.001,0.001c-0.001,0.001-0.003,0.002-0.004,0.003l-0.001,0.001 c-0.001,0.001-0.002,0.002-0.004,0.003l-0.001,0.001c-0.001,0.001-0.003,0.002-0.004,0.003l-0.001,0.001 c-0.001,0.001-0.003,0.002-0.004,0.003c0,0-0.001,0-0.001,0c-0.002,0.002-0.003,0.003-0.005,0.004l0,0 c-0.003,0.003-0.007,0.005-0.01,0.008l0,0c-0.002,0.001-0.003,0.003-0.005,0.004l-0.001,0c-0.001,0.001-0.003,0.002-0.004,0.003 c0,0-0.001,0-0.001,0.001c-0.001,0.001-0.003,0.002-0.004,0.003c0,0-0.001,0-0.001,0.001c-0.001,0.001-0.003,0.002-0.004,0.003 c0,0-0.001,0-0.001,0.001c-0.002,0.001-0.003,0.002-0.005,0.004l0,0c-0.005,0.004-0.01,0.008-0.016,0.012c0,0,0,0,0,0 c-0.002,0.001-0.003,0.003-0.005,0.004c0,0,0,0,0,0c-0.002,0.001-0.003,0.002-0.005,0.004l-0.001,0.001 c-0.001,0.001-0.003,0.002-0.004,0.003c0,0,0,0-0.001,0.001c-0.002,0.001-0.003,0.002-0.005,0.004c0,0,0,0,0,0 c-0.007,0.005-0.014,0.011-0.021,0.016l0,0c-0.002,0.001-0.003,0.002-0.005,0.004l-0.001,0.001 c-0.002,0.001-0.003,0.002-0.005,0.003c0,0,0,0-0.001,0.001c-0.002,0.001-0.003,0.002-0.005,0.004l0,0 c-0.009,0.007-0.018,0.013-0.026,0.02c0,0,0,0,0,0c-0.002,0.001-0.003,0.002-0.005,0.003c0,0,0,0,0,0 c-0.002,0.001-0.003,0.002-0.005,0.004l0,0c-0.002,0.001-0.003,0.003-0.005,0.004h0c-0.007,0.005-0.014,0.01-0.021,0.016l0,0 c-0.002,0.001-0.003,0.002-0.005,0.004c0,0,0,0-0.001,0c-0.002,0.001-0.003,0.002-0.005,0.003c0,0,0,0,0,0 c-0.002,0.001-0.003,0.002-0.005,0.004l0,0c-0.009,0.006-0.018,0.013-0.027,0.019l0,0c-0.002,0.001-0.003,0.002-0.005,0.003 l-0.001,0c-0.002,0.001-0.003,0.002-0.005,0.003l-0.001,0c-0.002,0.001-0.003,0.002-0.005,0.004l0,0 c-0.007,0.005-0.014,0.01-0.022,0.015c0,0,0,0,0,0c-0.002,0.001-0.003,0.002-0.005,0.003c0,0,0,0,0,0 c-0.002,0.001-0.003,0.002-0.005,0.003c0,0-0.001,0-0.001,0.001c-0.002,0.001-0.003,0.002-0.005,0.003l-0.001,0 c-0.002,0.001-0.003,0.002-0.005,0.003l0,0c-0.005,0.004-0.011,0.007-0.016,0.011l0,0c-0.002,0.001-0.003,0.002-0.005,0.003 c0,0,0,0-0.001,0c-0.002,0.001-0.003,0.002-0.005,0.003c0,0-0.001,0-0.001,0.001c-0.002,0.001-0.003,0.002-0.004,0.003 c0,0-0.001,0-0.001,0.001c-0.002,0.001-0.003,0.002-0.005,0.003c0,0,0,0,0,0c-0.007,0.005-0.015,0.01-0.022,0.014l-0.001,0 c-0.001,0.001-0.003,0.002-0.005,0.003c0,0-0.001,0-0.001,0c-0.002,0.001-0.003,0.002-0.005,0.003c0,0-0.001,0-0.001,0.001 c-0.001,0.001-0.003,0.002-0.004,0.003l-0.001,0.001c-0.001,0.001-0.003,0.002-0.005,0.003l-0.001,0 c-0.005,0.003-0.011,0.007-0.016,0.01c0,0-0.001,0-0.001,0.001c-0.002,0.001-0.003,0.002-0.004,0.003c0,0-0.001,0-0.001,0 c-0.002,0.001-0.003,0.002-0.004,0.003c0,0-0.001,0.001-0.002,0.001c-0.001,0.001-0.003,0.002-0.004,0.002l-0.002,0.001 c-0.001,0.001-0.003,0.002-0.004,0.003c0,0-0.001,0-0.001,0.001c-0.002,0.001-0.003,0.002-0.005,0.003c0,0,0,0,0,0 c-0.004,0.002-0.008,0.005-0.011,0.007c0,0-0.001,0-0.001,0c-0.002,0.001-0.003,0.002-0.005,0.003c0,0-0.001,0.001-0.002,0.001 c-0.001,0.001-0.003,0.002-0.004,0.002l-0.002,0.001c-0.001,0.001-0.002,0.001-0.004,0.002c-0.001,0-0.001,0.001-0.002,0.001 c-0.001,0.001-0.002,0.001-0.004,0.002c-0.001,0-0.001,0.001-0.002,0.001c-0.001,0.001-0.003,0.001-0.004,0.002 c-0.001,0-0.001,0.001-0.002,0.001c-0.002,0.001-0.003,0.002-0.005,0.003c0,0,0,0,0,0c-0.002,0.001-0.004,0.002-0.006,0.003 c0,0-0.001,0-0.001,0c-0.002,0.001-0.003,0.002-0.005,0.003c0,0-0.001,0.001-0.002,0.001c-0.001,0.001-0.002,0.001-0.004,0.002 c-0.001,0-0.001,0.001-0.001,0.001c-0.002,0.001-0.003,0.002-0.004,0.002c-0.001,0-0.001,0.001-0.002,0.001 c-0.001,0.001-0.002,0.001-0.003,0.002c-0.001,0-0.001,0.001-0.002,0.001c-0.001,0.001-0.002,0.001-0.003,0.002 c-0.001,0-0.001,0.001-0.001,0.001c-0.002,0.001-0.003,0.002-0.004,0.003c-0.001,0-0.001,0.001-0.002,0.001 c-0.002,0.001-0.004,0.002-0.005,0.003l-0.001,0c-0.002,0.001-0.003,0.002-0.005,0.003c0,0-0.001,0.001-0.002,0.001 c-0.001,0.001-0.002,0.001-0.003,0.002c-0.001,0-0.002,0.001-0.002,0.001c-0.001,0.001-0.002,0.001-0.003,0.002 c-0.001,0-0.002,0.001-0.002,0.001c-0.001,0-0.002,0.001-0.003,0.002c-0.001,0-0.002,0.001-0.003,0.001 c-0.001,0-0.002,0.001-0.003,0.002c-0.001,0-0.002,0.001-0.003,0.001c-0.001,0.001-0.002,0.001-0.003,0.002 c-0.001,0-0.002,0.001-0.002,0.001c-0.001,0.001-0.002,0.001-0.003,0.002c-0.001,0-0.002,0.001-0.002,0.001 c-0.002,0.001-0.003,0.002-0.005,0.003c0,0-0.002,0.001-0.002,0.001c-0.001,0.001-0.002,0.001-0.003,0.002 c-0.001,0-0.002,0.001-0.003,0.002c-0.001,0-0.002,0.001-0.003,0.001c-0.001,0-0.002,0.001-0.003,0.002 c-0.001,0-0.002,0.001-0.003,0.001c-0.001,0.001-0.002,0.001-0.003,0.002c-0.001,0-0.002,0.001-0.003,0.001 c-0.001,0.001-0.002,0.001-0.003,0.002c-0.001,0-0.002,0.001-0.003,0.001c-0.001,0.001-0.002,0.001-0.003,0.002 c-0.001,0-0.002,0.001-0.003,0.001c-0.001,0.001-0.002,0.001-0.003,0.002c-0.001,0-0.001,0.001-0.002,0.001 c-0.002,0.001-0.004,0.002-0.006,0.004c-0.001,0-0.001,0.001-0.001,0.001c-0.002,0.001-0.003,0.002-0.004,0.002 c-0.001,0-0.001,0.001-0.002,0.001c-0.001,0.001-0.002,0.001-0.003,0.002c-0.001,0-0.001,0.001-0.002,0.001 c-0.001,0.001-0.002,0.001-0.003,0.002c-0.001,0-0.001,0.001-0.002,0.001c-0.001,0-0.002,0.001-0.003,0.002 c-0.001,0-0.001,0.001-0.002,0.001c-0.001,0.001-0.002,0.001-0.003,0.002c-0.001,0-0.001,0.001-0.001,0.001 c-0.002,0.001-0.003,0.002-0.004,0.002c0,0-0.001,0-0.001,0.001c-0.004,0.002-0.009,0.005-0.013,0.007l-0.001,0.001 c-0.001,0.001-0.003,0.001-0.004,0.002c-0.001,0-0.001,0.001-0.002,0.001c-0.001,0.001-0.002,0.001-0.004,0.002 c-0.001,0-0.001,0.001-0.002,0.001c-0.001,0.001-0.002,0.001-0.004,0.002c-0.001,0-0.001,0.001-0.001,0.001 c-0.002,0.001-0.003,0.002-0.004,0.002c-0.001,0-0.001,0.001-0.002,0.001c-0.001,0.001-0.003,0.001-0.004,0.002 c0,0-0.001,0-0.001,0c-0.006,0.003-0.013,0.007-0.019,0.01c0,0-0.001,0-0.001,0.001c-0.001,0.001-0.003,0.001-0.004,0.002 c0,0-0.001,0-0.001,0c-0.002,0.001-0.003,0.002-0.004,0.002c-0.001,0-0.001,0-0.001,0c-0.002,0.001-0.003,0.002-0.004,0.002 c-0.001,0-0.001,0-0.002,0.001c-0.001,0.001-0.003,0.001-0.004,0.002c0,0-0.001,0-0.001,0.001 c-0.001,0.001-0.003,0.001-0.004,0.002l0,0c-0.007,0.003-0.013,0.007-0.02,0.01l-0.001,0c-0.001,0.001-0.003,0.001-0.004,0.002 c0,0-0.001,0-0.001,0.001c-0.001,0.001-0.003,0.001-0.004,0.002c0,0-0.001,0-0.001,0.001c-0.001,0.001-0.003,0.001-0.004,0.002 c0,0,0,0-0.001,0c-0.002,0.001-0.003,0.002-0.005,0.002l0,0c-0.007,0.004-0.014,0.007-0.021,0.01l0,0 c-0.002,0.001-0.003,0.001-0.005,0.002l-0.001,0c-0.002,0.001-0.003,0.002-0.005,0.002c0,0-0.001,0-0.001,0 c-0.002,0.001-0.003,0.001-0.005,0.002l-0.001,0c-0.002,0.001-0.003,0.002-0.005,0.002c0,0,0,0,0,0 c-0.009,0.004-0.017,0.008-0.026,0.013l0,0c-0.002,0.001-0.003,0.001-0.005,0.002c0,0,0,0,0,0 c-0.002,0.001-0.003,0.002-0.005,0.002l-0.001,0c-0.002,0.001-0.003,0.002-0.005,0.002l0,0c-0.01,0.005-0.021,0.01-0.031,0.015 c0,0,0,0,0,0c-0.002,0.001-0.003,0.002-0.005,0.002l-0.001,0c-0.002,0.001-0.003,0.001-0.005,0.002c0,0,0,0,0,0 c-0.011,0.005-0.021,0.01-0.031,0.014h0c-0.002,0.001-0.003,0.002-0.005,0.002c0,0,0,0,0,0c-0.002,0.001-0.003,0.001-0.005,0.002 c0,0,0,0,0,0c-0.002,0.001-0.003,0.002-0.005,0.002h0c-0.01,0.005-0.021,0.009-0.032,0.014l0,0 c-0.002,0.001-0.003,0.001-0.005,0.002l-0.001,0c-0.002,0.001-0.003,0.001-0.005,0.002c0,0,0,0,0,0 c-0.011,0.005-0.021,0.009-0.032,0.014c0,0,0,0,0,0c-0.002,0.001-0.003,0.001-0.005,0.002c0,0,0,0,0,0 c-0.002,0.001-0.003,0.001-0.005,0.002l0,0c-0.002,0.001-0.003,0.001-0.005,0.002h0c-0.009,0.004-0.018,0.007-0.027,0.011l0,0 c-0.002,0.001-0.003,0.001-0.005,0.002l-0.001,0c-0.002,0.001-0.003,0.001-0.005,0.002l-0.001,0 c-0.002,0.001-0.003,0.001-0.005,0.002c0,0,0,0-0.001,0c-0.002,0.001-0.003,0.001-0.005,0.002l0,0 c-0.009,0.004-0.018,0.007-0.026,0.011c0,0-0.001,0-0.001,0c-0.002,0.001-0.003,0.001-0.005,0.002c0,0-0.001,0-0.001,0 c-0.001,0-0.003,0.001-0.004,0.002l-0.001,0c-0.001,0.001-0.003,0.001-0.004,0.002c0,0-0.001,0-0.001,0 c-0.002,0.001-0.003,0.001-0.005,0.002l0,0c-0.007,0.003-0.014,0.005-0.021,0.008c0,0-0.001,0-0.001,0 c-0.001,0-0.003,0.001-0.004,0.002c0,0-0.001,0-0.001,0c-0.002,0.001-0.003,0.001-0.005,0.002c-0.001,0-0.001,0-0.002,0.001 c-0.001,0-0.003,0.001-0.004,0.001l-0.002,0.001c-0.001,0-0.003,0.001-0.004,0.002c0,0-0.001,0-0.001,0 c-0.001,0.001-0.003,0.001-0.004,0.002h0c-0.005,0.002-0.01,0.004-0.015,0.006c-0.001,0-0.001,0-0.002,0.001 c-0.001,0-0.003,0.001-0.004,0.001c0,0-0.001,0-0.002,0.001c-0.001,0-0.002,0.001-0.004,0.001c-0.001,0-0.002,0-0.002,0 c-0.002,0.001-0.003,0.001-0.004,0.002c-0.001,0-0.002,0.001-0.002,0.001c-0.001,0-0.002,0.001-0.003,0.001 c0,0-0.002,0.001-0.002,0.001c-0.001,0-0.002,0.001-0.003,0.001c-0.001,0-0.002,0-0.002,0.001c-0.001,0-0.002,0.001-0.003,0.001 c-0.001,0-0.001,0-0.002,0.001c-0.002,0.001-0.004,0.001-0.006,0.002c-0.001,0-0.002,0.001-0.003,0.001 c-0.001,0-0.002,0.001-0.003,0.001s-0.002,0.001-0.003,0.001c-0.001,0-0.002,0.001-0.003,0.001c-0.001,0-0.002,0.001-0.003,0.001 c-0.001,0-0.002,0.001-0.003,0.001c-0.001,0-0.002,0.001-0.003,0.001c-0.001,0-0.002,0.001-0.003,0.001 c-0.001,0-0.002,0.001-0.003,0.001c-0.001,0-0.002,0.001-0.003,0.001c-0.001,0-0.002,0.001-0.004,0.001 c-0.001,0-0.001,0-0.002,0.001c-0.002,0.001-0.003,0.001-0.005,0.002l-0.001,0c-0.002,0.001-0.004,0.001-0.006,0.002 c0,0-0.001,0-0.001,0c-0.002,0.001-0.004,0.001-0.005,0.002c-0.001,0-0.001,0-0.002,0.001c-0.001,0-0.003,0.001-0.004,0.001 c-0.001,0-0.001,0-0.002,0.001c-0.001,0-0.003,0.001-0.004,0.001c-0.001,0-0.001,0-0.002,0.001c-0.001,0-0.003,0.001-0.004,0.001 c-0.001,0-0.001,0-0.002,0.001c-0.001,0-0.003,0.001-0.004,0.001l-0.001,0c-0.002,0.001-0.004,0.001-0.006,0.002l0,0 c-0.004,0.001-0.008,0.003-0.012,0.004c0,0,0,0,0,0c-0.002,0.001-0.004,0.001-0.006,0.002c0,0-0.001,0-0.001,0 c-0.002,0.001-0.004,0.001-0.005,0.002c0,0-0.001,0-0.001,0c-0.002,0.001-0.004,0.001-0.006,0.002l-0.001,0 c-0.002,0.001-0.004,0.001-0.006,0.002h0c-0.023,0.008-0.046,0.015-0.069,0.022c-0.132,0.041-0.205,0.181-0.164,0.313 c0.033,0.107,0.132,0.176,0.239,0.176c0.025,0,0.05-0.004,0.074-0.011c0.608-0.189,1.162-0.49,1.648-0.896l0.397-0.331 c0.446-0.371,0.987-0.567,1.564-0.567c0.083,0,0.167,0.004,0.251,0.012c0.659,0.067,1.25,0.389,1.664,0.906l0.521,0.65 c0.916,1.145,2.283,1.802,3.75,1.802c1.467,0,2.834-0.657,3.75-1.802c0.196-0.245,0.285-0.552,0.251-0.865 c-0.035-0.312-0.189-0.592-0.434-0.789c-0.208-0.166-0.469-0.258-0.735-0.258h0c-0.359,0-0.694,0.161-0.919,0.441 c-0.432,0.54-1.048,0.864-1.735,0.913c-0.138,0.01-0.241,0.129-0.232,0.267c0.009,0.132,0.119,0.232,0.249,0.232 c0.006,0,0.012,0,0.017-0.001c0.001,0,0.002,0,0.002,0l0.001,0c0.001,0,0.003,0,0.004,0l0.001,0c0.001,0,0.003,0,0.004,0 c0,0,0.001,0,0.001,0c0.002,0,0.003,0,0.004,0c0,0,0.001,0,0.001,0c0.001,0,0.003,0,0.004,0c0,0,0.001,0,0.001,0 c0.005,0,0.01-0.001,0.015-0.001l0.001,0c0.001,0,0.003,0,0.004,0l0.001,0c0.001,0,0.002,0,0.004,0c0,0,0.001,0,0.002,0 c0.001,0,0.002,0,0.003,0c0.001,0,0.001,0,0.002,0c0.001,0,0.002,0,0.003,0c0.001,0,0.001,0,0.002,0c0.001,0,0.002,0,0.003,0 c0.001,0,0.001,0,0.002,0c0.001,0,0.002,0,0.003,0c0.001,0,0.001,0,0.002,0c0.001,0,0.002,0,0.003,0c0,0,0.001,0,0.002,0 c0.001,0,0.002,0,0.003,0c0.001,0,0.001,0,0.002,0c0.001,0,0.003,0,0.004,0c0,0,0.001,0,0.001,0c0.002,0,0.003,0,0.005,0h0 c0.002,0,0.003,0,0.005,0l0.001,0c0.001,0,0.003,0,0.004,0c0.001,0,0.001,0,0.002,0c0.001,0,0.002,0,0.003,0 c0.001,0,0.001,0,0.002,0c0.001,0,0.002,0,0.003,0c0.001,0,0.001,0,0.002,0c0.001,0,0.002,0,0.003,0c0.001,0,0.001,0,0.002,0 c0.001,0,0.002,0,0.003,0c0.001,0,0.002,0,0.002,0c0.001,0,0.002,0,0.003,0c0.001,0,0.001,0,0.002,0c0.001,0,0.002,0,0.003,0 c0.001,0,0.001,0,0.002,0c0.001,0,0.002,0,0.003,0c0.001,0,0.001,0,0.002,0c0.001,0,0.002,0,0.003,0c0.001,0,0.001,0,0.002,0 c0.001,0,0.002,0,0.004,0c0,0,0.001,0,0.001,0c0.002,0,0.003,0,0.005-0.001l0,0c0.002,0,0.003,0,0.005-0.001c0,0,0.001,0,0.002,0 c0.001,0,0.002,0,0.003,0c0.001,0,0.002,0,0.002,0c0.001,0,0.002,0,0.003,0c0,0,0.002,0,0.002,0c0.001,0,0.002,0,0.003,0 c0,0,0.002,0,0.002,0c0.001,0,0.002,0,0.003,0c0,0,0.002,0,0.002,0c0.001,0,0.002,0,0.003,0c0,0,0.002,0,0.002,0s0.002,0,0.003,0 c0,0,0.002,0,0.002,0c0.001,0,0.002,0,0.003,0c0,0,0.002,0,0.002,0c0.001,0,0.002,0,0.002,0c0.002,0,0.002,0,0.003,0 c0.001,0,0.002,0,0.003,0c0.001,0,0.002,0,0.002,0c0.001,0,0.002,0,0.003,0c0,0,0.001,0,0.002,0c0.002,0,0.003,0,0.005-0.001 c0.001,0,0.001,0,0.001,0c0.002,0,0.003,0,0.004-0.001c0.001,0,0.001,0,0.002,0c0.001,0,0.002,0,0.003,0c0.001,0,0.001,0,0.002,0 c0,0,0.002,0,0.003,0c0.001,0,0.001,0,0.002,0c0,0,0.002,0,0.003,0c0.001,0,0.002,0,0.002,0c0,0,0.002,0,0.003,0 c0.001,0,0.002,0,0.002,0c0.001,0,0.002,0,0.003,0c0.001,0,0.002,0,0.002,0c0.002,0,0.003,0,0.003,0c0.001,0,0.001,0,0.002,0 c0.001,0,0.002,0,0.003,0c0.001,0,0.002,0,0.002,0c0.001,0,0.002,0,0.003,0c0.001,0,0.001,0,0.002,0c0.001,0,0.002,0,0.003,0 c0.001,0,0.001,0,0.002,0c0.001,0,0.003,0,0.004-0.001l0.001,0c0.002,0,0.003,0,0.005-0.001c0,0,0.001,0,0.002,0 c0.001,0,0.002,0,0.003,0c0,0,0.002,0,0.002,0c0.001,0,0.002,0,0.003,0c0,0,0.002,0,0.002,0c0.001,0,0.002,0,0.002,0 c0.002,0,0.003,0,0.003,0c0.001,0,0.002,0,0.002,0s0.002,0,0.002,0s0.002,0,0.003,0c0.001,0,0.001,0,0.002,0c0,0,0.002,0,0.003,0 c0.001,0,0.002,0,0.002,0c0.001,0,0.002,0,0.003,0c0.001,0,0.001,0,0.001,0c0.002,0,0.003,0,0.003-0.001c0.001,0,0.002,0,0.002,0 c0.002,0,0.003,0,0.003-0.001c0.001,0,0.001,0,0.002,0c0.001,0,0.002,0,0.003,0c0.001,0,0.001,0,0.002,0 c0.002,0,0.003-0.001,0.005-0.001l0.001,0c0.001,0,0.002,0,0.004-0.001c0,0,0.001,0,0.002,0c0.001,0,0.002,0,0.003-0.001 c0,0,0.001,0,0.002,0c0.001,0,0.002,0,0.003,0c0.001,0,0.002,0,0.002,0s0.002,0,0.003,0c0.001,0,0.002,0,0.002,0 c0.001,0,0.002,0,0.003,0c0.001,0,0.002,0,0.002,0c0,0,0.002,0,0.003,0c0.001,0,0.002,0,0.002,0c0.002,0,0.002,0,0.003-0.001 c0.001,0,0.002,0,0.002,0c0.002,0,0.003,0,0.003-0.001s0.002,0,0.002,0c0.001,0,0.002,0,0.003,0c0.001,0,0.002,0,0.002,0 c0.001,0,0.002,0,0.003,0c0.001,0,0.001,0,0.002,0c0.001,0,0.002,0,0.003-0.001c0.001,0,0.001,0,0.002,0 c0.002,0,0.003-0.001,0.005-0.001l0.002,0c0.001,0,0.002,0,0.003-0.001c0.001,0,0.002,0,0.002,0c0,0,0.002,0,0.003,0 c0.001,0,0.002,0,0.002,0c0,0,0.002,0,0.002,0c0.001,0,0.002,0,0.002,0c0.002,0,0.002,0,0.003-0.001c0.001,0,0.002,0,0.002,0 c0.001,0,0.002,0,0.002,0c0.001,0,0.002,0,0.002-0.001c0.001,0,0.002,0,0.002,0c0,0,0.002,0,0.002,0c0.001,0,0.002,0,0.002,0 c0.002,0,0.003-0.001,0.003-0.001c0.001,0,0.002,0,0.002,0c0.001,0,0.002,0,0.002-0.001c0,0,0.002,0,0.002,0 c0.001,0,0.002,0,0.002-0.001c0.001,0,0.002,0,0.003,0c0.001,0,0.002,0,0.002,0c0.002,0,0.003-0.001,0.003-0.001 c0.001,0,0.003,0,0.004-0.001c0.001,0,0.002,0,0.003-0.001c0.001,0,0.001,0,0.002,0c0.001,0,0.002,0,0.003-0.001 c0,0,0.001,0,0.002-0.001c0.001,0,0.002,0,0.002,0c0.002,0,0.002-0.001,0.003-0.001c0.001,0,0.002,0,0.003-0.001 c0.001,0,0.002,0,0.002,0c0,0,0.002,0,0.003-0.001c0.001,0,0.001,0,0.001,0c0.002,0,0.002-0.001,0.003-0.001 c0.001,0,0.002,0,0.002,0c0.001,0,0.002,0,0.003-0.001c0,0,0.002,0,0.002,0c0.001,0,0.002,0,0.003-0.001c0,0,0.001,0,0.002,0 c0.001,0,0.002,0,0.003-0.001c0,0,0.001,0,0.002-0.001c0.001,0,0.002,0,0.003-0.001c0.001,0,0.001,0,0.001,0 c0.002,0,0.003-0.001,0.004-0.001l0.001,0c0.002,0,0.003-0.001,0.005-0.001l0.001,0c0.001,0,0.003-0.001,0.004-0.001 c0.001,0,0.001,0,0.001,0c0.002,0,0.003-0.001,0.004-0.001l0.002,0c0.001,0,0.002,0,0.003-0.001c0.001,0,0.001,0,0.001,0 c0.002,0,0.003-0.001,0.004-0.001c0.001,0,0.001,0,0.002,0c0.001,0,0.002,0,0.003-0.001c0.001,0,0.001,0,0.002,0 c0.001,0,0.002,0,0.003-0.001c0,0,0.001,0,0.002,0c0.001,0,0.002-0.001,0.003-0.001c0,0,0.001,0,0.002,0 c0.001,0,0.002,0,0.003-0.001c0,0,0.001,0,0.002,0c0.001,0,0.002-0.001,0.003-0.001c0.001,0,0.001,0,0.001,0 c0.002,0,0.003-0.001,0.004-0.001c0,0,0.001,0,0.002,0c0.003-0.001,0.006-0.002,0.01-0.003l0.001,0 c0.001,0,0.003-0.001,0.004-0.001c0,0,0.001,0,0.001,0c0.001,0,0.002-0.001,0.003-0.001c0.001,0,0.001,0,0.002,0 c0.001,0,0.002-0.001,0.003-0.001c0.001,0,0.001,0,0.002,0c0.001,0,0.002,0,0.003-0.001c0,0,0.001,0,0.002,0 c0.001,0,0.002,0,0.003-0.001c0.001,0,0.001,0,0.001,0c0.002,0,0.003-0.001,0.004-0.001c0.001,0,0.001,0,0.002,0 c0.001,0,0.002-0.001,0.003-0.001c0,0,0.001,0,0.002,0c0.001,0,0.002-0.001,0.003-0.001c0.001,0,0.001,0,0.002,0 c0.001,0,0.002-0.001,0.003-0.001l0.001,0c0.001,0,0.003-0.001,0.004-0.001c0,0,0,0,0,0c0.003-0.001,0.007-0.002,0.01-0.003 c0,0,0.001,0,0.001,0c0.001,0,0.003-0.001,0.004-0.001c0,0,0.001,0,0.001,0c0.001,0,0.002-0.001,0.004-0.001c0,0,0.001,0,0.001,0 c0.001,0,0.002-0.001,0.003-0.001c0.001,0,0.001,0,0.002,0c0.001,0,0.002-0.001,0.003-0.001c0,0,0.001,0,0.002-0.001 c0.001,0,0.002-0.001,0.003-0.001l0.002,0c0.001,0,0.002-0.001,0.003-0.001c0.001,0,0.001,0,0.002,0 c0.001,0,0.002-0.001,0.003-0.001c0.001,0,0.001,0,0.002,0c0.001,0,0.002-0.001,0.003-0.001c0,0,0.001,0,0.001,0 c0.001,0,0.003-0.001,0.004-0.001c0,0,0,0,0,0c0.005-0.002,0.01-0.003,0.015-0.005c0,0,0.001,0,0.001,0 c0.002,0,0.003-0.001,0.004-0.001c0,0,0.001,0,0.001,0c0.002,0,0.003-0.001,0.004-0.001l0.001,0c0.001,0,0.002-0.001,0.003-0.001 c0,0,0.001,0,0.001,0c0.001,0,0.002-0.001,0.003-0.001c0,0,0.001,0,0.002,0c0.001,0,0.002-0.001,0.003-0.001c0,0,0.001,0,0.001,0 c0.001,0,0.002-0.001,0.003-0.001l0.001,0c0.001,0,0.002-0.001,0.004-0.001c0,0,0.001,0,0.001,0 c0.002-0.001,0.003-0.001,0.004-0.001c0,0,0.001,0,0.001,0c0.002-0.001,0.003-0.001,0.005-0.002h0 c0.005-0.002,0.01-0.003,0.014-0.005l0,0c0.001,0,0.003-0.001,0.004-0.001c0,0,0.001,0,0.001,0 c0.002-0.001,0.003-0.001,0.004-0.001c0,0,0.001,0,0.001,0c0.002,0,0.003-0.001,0.004-0.001l0.001,0 c0.001,0,0.002-0.001,0.003-0.001l0.002,0c0.001,0,0.002-0.001,0.003-0.001c0,0,0.001,0,0.001,0c0.001,0,0.002-0.001,0.003-0.001 c0,0,0.001,0,0.001,0c0.002-0.001,0.003-0.001,0.004-0.001c0,0,0.001,0,0.001,0c0.002-0.001,0.003-0.001,0.004-0.001 c0,0,0,0,0.001,0c0.006-0.002,0.013-0.005,0.019-0.007c0,0,0.001,0,0.001,0c0.001,0,0.003-0.001,0.004-0.001c0,0,0.001,0,0.001,0 c0.002,0,0.003-0.001,0.004-0.001l0.001,0c0.001,0,0.003-0.001,0.004-0.001c0,0,0.001,0,0.001,0c0.001,0,0.003-0.001,0.004-0.001 c0,0,0.001,0,0.001,0c0.001,0,0.002-0.001,0.004-0.001c0,0,0.001,0,0.001,0c0.002-0.001,0.003-0.001,0.004-0.002l0.001,0 c0.001,0,0.003-0.001,0.004-0.002c0,0,0,0,0.001,0c0.002,0,0.003-0.001,0.005-0.002h0c0.006-0.002,0.013-0.005,0.019-0.007l0,0 c0.001-0.001,0.003-0.001,0.004-0.002l0,0c0.001,0,0.003-0.001,0.004-0.002c0,0,0,0,0,0c0.001-0.001,0.003-0.001,0.004-0.002 c0,0,0,0,0,0c0.002-0.001,0.003-0.001,0.004-0.002c0,0,0.001,0,0.001,0c0.001,0,0.003-0.001,0.004-0.002l0,0 c0.001,0,0.003-0.001,0.004-0.002l0,0c0.009-0.004,0.019-0.008,0.028-0.011l0,0c0.001-0.001,0.003-0.001,0.004-0.002l0,0 c0.001-0.001,0.003-0.001,0.004-0.002l0.001,0c0.001,0,0.003-0.001,0.004-0.002c0,0,0,0,0.001,0 c0.001-0.001,0.003-0.001,0.004-0.002l0.001,0c0.001-0.001,0.003-0.001,0.004-0.002c0,0,0,0,0,0 c0.013-0.005,0.025-0.011,0.037-0.016l0,0c0.001-0.001,0.003-0.001,0.004-0.002l0,0c0.001-0.001,0.003-0.001,0.004-0.002l0,0 c0.001-0.001,0.003-0.001,0.004-0.002l0,0c0.001-0.001,0.003-0.001,0.005-0.002l0,0c0.012-0.005,0.025-0.011,0.037-0.017h0 c0.002-0.001,0.003-0.001,0.004-0.002c0,0,0,0,0,0c0.001-0.001,0.003-0.001,0.004-0.002h0c0.002-0.001,0.003-0.001,0.004-0.002h0 c0.3-0.142,0.576-0.334,0.815-0.572h0c0.001-0.001,0.002-0.002,0.004-0.004l0,0c0.001-0.001,0.002-0.002,0.004-0.004l0,0 c0.011-0.011,0.022-0.022,0.033-0.033l0,0c0.001-0.001,0.002-0.002,0.003-0.004l0,0c0.001-0.001,0.002-0.002,0.003-0.004l0,0 c0.001-0.001,0.002-0.002,0.003-0.004l0,0c0.001-0.001,0.002-0.002,0.003-0.004l0,0c0.008-0.009,0.017-0.018,0.025-0.026l0,0 c0.001-0.001,0.002-0.002,0.003-0.004c0,0,0,0,0,0c0.001-0.001,0.002-0.002,0.003-0.003l0,0c0.001-0.001,0.002-0.002,0.003-0.003 c0,0,0,0,0,0c0.001-0.001,0.002-0.002,0.003-0.003c0,0,0,0,0,0c0.001-0.001,0.002-0.002,0.003-0.004c0,0,0,0,0,0 c0.006-0.006,0.012-0.013,0.017-0.019l0,0c0.001-0.001,0.002-0.002,0.003-0.004c0,0,0,0,0,0c0.001-0.001,0.002-0.002,0.003-0.003 c0,0,0-0.001,0.001-0.001c0.001-0.001,0.002-0.002,0.003-0.003l0.001-0.001c0.001-0.001,0.002-0.002,0.003-0.003l0.001-0.001 c0.001-0.001,0.002-0.002,0.003-0.003c0,0,0.001,0,0.001-0.001c0.001-0.001,0.002-0.002,0.003-0.003c0,0,0,0,0.001-0.001 c0.001-0.001,0.002-0.002,0.003-0.003c0,0,0,0,0,0c0.001-0.001,0.002-0.002,0.003-0.004l0,0c0.005-0.005,0.009-0.01,0.014-0.016 l0-0.001c0.001-0.001,0.002-0.002,0.003-0.003c0,0,0.001-0.001,0.001-0.001c0.001-0.001,0.002-0.002,0.002-0.003 c0,0,0.001-0.001,0.001-0.001c0.001-0.001,0.002-0.002,0.002-0.003c0,0,0.001-0.001,0.001-0.001C53.954,61,53.955,61,53.956,60.999 c0,0,0.001-0.001,0.001-0.001c0.001-0.001,0.002-0.002,0.002-0.003c0,0,0.001-0.001,0.001-0.001 c0.001-0.001,0.002-0.002,0.003-0.003c0,0,0.001-0.001,0.001-0.001c0.001-0.001,0.002-0.002,0.003-0.003 c0,0,0.001-0.001,0.001-0.001c0.001-0.001,0.002-0.002,0.003-0.003c0,0,0,0,0,0c0.002-0.003,0.005-0.005,0.007-0.008l0,0 c0.001-0.001,0.002-0.002,0.003-0.004c0,0,0.001-0.001,0.001-0.001c0.001-0.001,0.002-0.002,0.002-0.003l0.001-0.001 c0.001-0.001,0.001-0.002,0.002-0.003c0,0,0.001-0.001,0.001-0.001c0.001-0.001,0.002-0.002,0.002-0.003 c0-0.001,0.001-0.001,0.001-0.002c0.001-0.001,0.001-0.002,0.002-0.002c0,0,0.001-0.001,0.001-0.002 c0.001-0.001,0.001-0.002,0.002-0.002l0.001-0.002c0.001-0.001,0.001-0.002,0.002-0.002C54,60.946,54,60.945,54,60.945 c0.001-0.001,0.002-0.002,0.002-0.002c0.001-0.001,0.002-0.002,0.002-0.002c0.001-0.001,0.001-0.002,0.002-0.003 c0,0,0.001-0.001,0.001-0.001c0.001-0.001,0.001-0.002,0.002-0.003l0.001-0.001c0.001-0.001,0.002-0.003,0.003-0.004l0,0 c0.134-0.167,0.331-0.254,0.529-0.254h0l0,0l0,0h0.001c0.145,0,0.291,0.047,0.414,0.142c0.001,0.001,0.002,0.001,0.003,0.002 c0.001,0,0.001,0.001,0.002,0.002c0,0,0.001,0.001,0.002,0.001c0.001,0,0.001,0.001,0.002,0.002 c0.146,0.117,0.231,0.282,0.25,0.454c0.019,0.172-0.027,0.351-0.144,0.497l0,0c-0.82,1.026-2.044,1.615-3.359,1.615 c-1.314,0-2.538-0.588-3.36-1.615l0,0l0,0l0,0c0,0,0,0,0,0l0,0l0,0l0,0c0,0-0.001-0.001-0.001-0.001l0,0l0,0l0,0l0,0l0,0 c0,0-0.001-0.001-0.001-0.001l0,0l0,0l-0.001-0.001l-0.001-0.001l0,0c0,0-0.001-0.001-0.001-0.001l0,0 c-0.001-0.001-0.001-0.001-0.002-0.002l0,0c-0.001-0.001-0.002-0.002-0.003-0.004l0-0.001l0,0l0,0l-0.001-0.001l0,0l0,0 l-0.001-0.001c-0.002-0.002-0.003-0.004-0.005-0.007l0,0l0,0l-0.001-0.001c0,0,0-0.001-0.001-0.001l-0.001-0.001 c-0.002-0.003-0.005-0.006-0.007-0.009l0,0c-0.001-0.001-0.001-0.002-0.002-0.003l0,0c-0.005-0.006-0.01-0.013-0.016-0.02l0,0 c-0.001-0.002-0.003-0.003-0.004-0.005l-0.001-0.001l-0.001-0.001l0,0c0,0-0.001-0.001-0.001-0.001l-0.001-0.001 c-0.001-0.001-0.001-0.001-0.002-0.002L48.292,61.7c-0.001-0.001-0.002-0.002-0.003-0.003l0,0c0,0-0.001-0.001-0.001-0.001l0,0 c0,0,0-0.001,0-0.001l0,0c-0.001-0.001-0.001-0.001-0.002-0.002l0-0.001c-0.001-0.001-0.001-0.001-0.002-0.002l-0.001-0.002 c0,0-0.001-0.001-0.001-0.002l-0.001-0.001c-0.001-0.001-0.002-0.002-0.003-0.003l0,0c0,0-0.001-0.001-0.001-0.001l0,0 c-0.001-0.002-0.003-0.003-0.004-0.005l-0.001-0.002c-0.003-0.004-0.006-0.008-0.01-0.012L48.26,61.66l0-0.001l-0.002-0.003l0,0 l-0.001-0.001c-0.003-0.003-0.005-0.006-0.008-0.01l-0.001-0.002c-0.011-0.014-0.023-0.028-0.035-0.044l-0.002-0.002 c0-0.001-0.001-0.001-0.001-0.001l-0.003-0.003c0,0-0.001-0.001-0.001-0.001l0,0c0,0-0.001-0.001-0.001-0.001l0,0 c-0.001-0.001-0.001-0.001-0.002-0.002l-0.001-0.001c0,0,0,0,0,0l-0.001-0.002c0,0,0,0,0,0l-0.001-0.001 c-0.001-0.001-0.002-0.002-0.002-0.003l-0.001-0.001c-0.003-0.004-0.006-0.007-0.009-0.011l0,0c0,0-0.001-0.001-0.001-0.002l0,0 c-0.002-0.002-0.003-0.004-0.005-0.006L48.18,61.56c-0.002-0.002-0.003-0.004-0.005-0.006l-0.001-0.001 c-0.001-0.001-0.001-0.001-0.002-0.002l-0.002-0.003c-0.001-0.001-0.002-0.003-0.003-0.004l-0.003-0.004 c-0.001-0.001-0.002-0.002-0.003-0.003l0,0c-0.003-0.004-0.007-0.008-0.01-0.013l-0.001-0.001 c-0.002-0.003-0.005-0.006-0.007-0.009l0-0.001c-0.001-0.001-0.001-0.002-0.002-0.002l-0.001-0.001 c-0.003-0.004-0.006-0.008-0.009-0.012l0,0c0-0.001-0.001-0.001-0.001-0.002h0l-0.001-0.002l0-0.001 c-0.001-0.002-0.003-0.003-0.004-0.005l-0.001-0.001c-0.001-0.001-0.002-0.003-0.003-0.004h0c-0.001-0.001-0.002-0.002-0.002-0.003 l-0.001-0.001c-0.003-0.004-0.007-0.008-0.01-0.013l0,0c0,0-0.001-0.001-0.001-0.001l-0.001-0.001 c-0.004-0.005-0.007-0.009-0.011-0.014l0,0c-0.001-0.001-0.002-0.003-0.003-0.004l-0.003-0.003 c-0.001-0.002-0.003-0.003-0.004-0.005l-0.001-0.002l0,0l-0.007-0.008c-0.002-0.003-0.005-0.006-0.007-0.009l-0.002-0.003 c-0.001-0.001-0.002-0.002-0.003-0.003L48.06,61.41c-0.001-0.001-0.001-0.001-0.002-0.002l-0.004-0.005l-0.001-0.001l-0.001-0.001 c0,0-0.001-0.001-0.001-0.002l-0.003-0.004l0,0l-0.003-0.004c-0.005-0.007-0.011-0.013-0.016-0.02l-0.004-0.005 c0,0-0.001-0.001-0.001-0.001l-0.001-0.001c0,0,0,0-0.001-0.001l-0.003-0.004c0-0.001-0.001-0.001-0.002-0.002l-0.001-0.001 c0-0.001-0.001-0.001-0.001-0.002l0,0c-0.002-0.002-0.004-0.005-0.006-0.007l0,0c-0.001-0.001-0.002-0.002-0.002-0.003 l-0.003-0.003c-0.001-0.001-0.002-0.002-0.002-0.003l-0.003-0.004c-0.001-0.001-0.002-0.002-0.003-0.004l0,0 c0,0-0.001-0.001-0.002-0.002l-0.001-0.001c-0.001-0.001-0.002-0.002-0.003-0.004l-0.001-0.001 c-0.002-0.002-0.003-0.004-0.005-0.006l0,0c-0.004-0.005-0.008-0.01-0.012-0.015l-0.001-0.001 c-0.013-0.016-0.025-0.031-0.036-0.045l0,0c-0.001-0.001-0.002-0.002-0.003-0.004l-0.001-0.001c0-0.001-0.001-0.001-0.001-0.002 l0-0.001c0,0-0.001-0.001-0.001-0.002l-0.001-0.001c0,0-0.001-0.001-0.002-0.002l-0.001-0.001 c-0.001-0.001-0.002-0.002-0.002-0.003l0,0l-0.001-0.001l-0.005-0.007c-0.001-0.001-0.001-0.002-0.001-0.002l-0.003-0.003 c-0.001-0.001-0.002-0.002-0.003-0.003l-0.001-0.001c0,0-0.001-0.001-0.001-0.001l-0.001-0.001c0-0.001-0.001-0.001-0.002-0.002 l0,0c-0.002-0.003-0.005-0.006-0.007-0.009l0,0c0,0-0.001-0.001-0.001-0.001l0,0c-0.002-0.002-0.003-0.004-0.005-0.006l0,0 c-0.005-0.006-0.009-0.012-0.014-0.017l0,0c-0.006-0.007-0.011-0.014-0.016-0.02l0,0c-0.002-0.002-0.003-0.004-0.005-0.006 l-0.002-0.003l-0.001-0.001l0,0c-0.002-0.003-0.005-0.006-0.007-0.009l0,0c0-0.001-0.001-0.001-0.001-0.002l0,0 c0,0-0.001-0.001-0.001-0.002h0c0-0.001-0.001-0.001-0.001-0.002l0,0c-0.001-0.001-0.001-0.002-0.002-0.002l-0.001-0.001 c0,0-0.001-0.001-0.001-0.001l0,0l0,0l0,0c0,0-0.001-0.001-0.001-0.001l0,0l0,0l0-0.001l0-0.001l0,0l0,0l0,0 c0,0-0.001-0.001-0.001-0.001l0,0c0,0,0,0,0-0.001l0,0l0,0l0,0l0,0v0c0,0,0,0,0,0l0,0l0,0l0-0.001c0,0,0,0,0,0l0,0 c0,0,0,0-0.001-0.001l0,0l0,0l0,0c-0.499-0.624-1.211-1.011-2.006-1.092C45.725,60.023,45.625,60.018,45.526,60.018L45.526,60.018z M45.516,58.163c-1.112,0-2.198,0.396-3.06,1.114l-0.398,0.331c-0.321,0.268-0.708,0.45-1.12,0.526 c-0.136,0.025-0.225,0.156-0.2,0.291c0.022,0.12,0.127,0.204,0.245,0.204c0.015,0,0.029-0.001,0.044-0.004 c0.171-0.032,0.339-0.078,0.501-0.139h0c0.002-0.001,0.005-0.002,0.007-0.003l0,0c0.004-0.001,0.007-0.003,0.011-0.004l0,0 c0.002-0.001,0.005-0.002,0.007-0.003h0c0.001,0,0.002-0.001,0.003-0.001c0,0,0,0,0.001,0c0.002-0.001,0.005-0.002,0.007-0.003 c0,0,0.001,0,0.001,0c0.001,0,0.002-0.001,0.003-0.001l0.001,0c0.001,0,0.002-0.001,0.003-0.001h0c0.001,0,0.002-0.001,0.003-0.001 c0,0,0.001,0,0.001,0c0,0,0.002-0.001,0.002-0.001l0.001,0c0.001,0,0.002-0.001,0.003-0.001l0,0c0.001,0,0.002-0.001,0.003-0.001 c0,0,0.001,0,0.001,0c0.001,0,0.002-0.001,0.002-0.001l0.001,0c0.001,0,0.002-0.001,0.003-0.001c0,0,0.001,0,0.001,0 c0.001,0,0.002-0.001,0.003-0.001c0,0,0.001,0,0.001,0c0.001,0,0.002-0.001,0.002-0.001l0.001,0c0.001,0,0.002-0.001,0.003-0.001 c0,0,0.001,0,0.001,0c0.001,0,0.002-0.001,0.002-0.001c0.001,0,0.002-0.001,0.002-0.001c0.001,0,0.002-0.001,0.002-0.001 c0,0,0.001,0,0.001,0c0.001-0.001,0.002-0.001,0.003-0.001c0,0,0.001,0,0.001-0.001c0.001,0,0.001,0,0.001,0 c0.001,0,0.002-0.001,0.002-0.001c0,0,0.001-0.001,0.002-0.001c0.001,0,0.001-0.001,0.002-0.001c0.001,0,0.001-0.001,0.002-0.001 c0,0,0.001,0,0.001-0.001l0.002-0.001c0,0,0.001,0,0.002-0.001c0.001,0,0.001-0.001,0.002-0.001c0.001,0,0.002-0.001,0.003-0.001 c0.001,0,0.001,0,0.002-0.001c0,0,0.001,0,0.002-0.001l0.002-0.001c0.001,0,0.001,0,0.002-0.001c0,0,0.001-0.001,0.002-0.001 c0.001,0,0.002-0.001,0.003-0.001c0,0,0.001,0,0.001-0.001c0,0,0.001,0,0.002-0.001c0,0,0.001,0,0.001,0 c0.002-0.001,0.004-0.002,0.007-0.003c0,0,0.001,0,0.001,0c0.001,0,0.001-0.001,0.001-0.001c0.001,0,0.001-0.001,0.002-0.001 c0.001,0,0.002-0.001,0.004-0.002c0,0,0.001,0,0.001,0c0.001,0,0.001-0.001,0.002-0.001c0,0,0.001,0,0.001,0 c0.001,0,0.002-0.001,0.002-0.001c0.001,0,0.001-0.001,0.001-0.001c0.002-0.001,0.003-0.001,0.005-0.002l0,0 c0.001,0,0.002-0.001,0.002-0.001l0.001,0c0.002-0.001,0.005-0.002,0.007-0.003l0.001,0c0,0,0.001-0.001,0.002-0.001l0.001,0 c0.002-0.001,0.005-0.002,0.007-0.003l0,0c0.001,0,0.002-0.001,0.002-0.001l0.001,0c0.002-0.001,0.005-0.002,0.007-0.003 c0,0,0,0,0,0c0.001,0,0.002-0.001,0.003-0.001l0,0c0.003-0.001,0.005-0.002,0.008-0.004c0,0,0,0,0,0 c0.003-0.001,0.005-0.002,0.008-0.004h0c0.001,0,0.002-0.001,0.003-0.001l0,0c0.192-0.089,0.374-0.198,0.544-0.328l0,0 c0.001-0.001,0.001-0.001,0.002-0.002l0,0c0.002-0.002,0.005-0.004,0.007-0.005h0c0.003-0.002,0.006-0.005,0.009-0.007c0,0,0,0,0,0 c0.002-0.002,0.004-0.003,0.007-0.005l0,0c0.001-0.001,0.001-0.001,0.002-0.002c0,0,0,0,0,0c0.002-0.002,0.004-0.003,0.006-0.005 c0,0,0,0,0.001,0c0.001,0,0.001-0.001,0.002-0.001c0,0,0,0,0.001-0.001c0.002-0.002,0.004-0.003,0.006-0.005l0.001-0.001 c0.001,0,0.001-0.001,0.002-0.001c0,0,0.001-0.001,0.001-0.001c0.001-0.001,0.002-0.001,0.003-0.002c0,0,0.001-0.001,0.001-0.001 c0,0,0.001-0.001,0.001-0.001c0.001-0.001,0.001-0.001,0.002-0.001c0.001,0,0.001-0.001,0.002-0.001c0,0,0.001-0.001,0.001-0.001 c0.001-0.001,0.002-0.001,0.002-0.002c0,0,0.001-0.001,0.001-0.001c0,0,0.001-0.001,0.001-0.001c0,0,0.001-0.001,0.001-0.001 l0.001-0.001c0.001,0,0.001-0.001,0.002-0.001c0.001,0,0.001-0.001,0.002-0.002c0,0,0.001-0.001,0.001-0.001 c0.001-0.001,0.001-0.001,0.002-0.001c0,0,0.001-0.001,0.001-0.001c0,0,0.001-0.001,0.001-0.001c0,0,0.002-0.001,0.003-0.002 c0,0,0.001,0,0.001-0.001c0.001,0,0.001-0.001,0.002-0.001l0.001-0.001c0.001,0,0.001-0.001,0.002-0.001 c0,0,0.001-0.001,0.001-0.001c0.001-0.001,0.002-0.001,0.002-0.001c0.001-0.001,0.002-0.001,0.002-0.001 c0.001-0.001,0.002-0.001,0.002-0.002c0,0,0.001,0,0.001-0.001c0.001,0,0.001-0.001,0.001-0.001 c0.001-0.001,0.001-0.001,0.001-0.001c0.001-0.001,0.002-0.002,0.003-0.002c0,0,0.001,0,0.001-0.001c0,0,0.001-0.001,0.002-0.002 c0,0,0.001,0,0.001,0c0.001-0.001,0.002-0.002,0.003-0.003l0,0l0,0l0.017-0.014l0,0l0.045-0.037l0,0l0.064-0.053l0,0l0.073-0.061 l0,0l0.073-0.061l0,0l0.064-0.053l0,0l0.045-0.037l0,0l0.017-0.014l0,0c0.779-0.65,1.742-0.998,2.74-0.998l0,0 c0.148,0,0.297,0.008,0.446,0.023c1.16,0.117,2.199,0.683,2.927,1.593l0,0l0.431,0.538c0.049,0.061,0.122,0.093,0.195,0.093 c0.055,0,0.11-0.018,0.156-0.055c0.108-0.086,0.125-0.244,0.039-0.351l-0.43-0.537c-0.812-1.016-1.973-1.647-3.267-1.778 C45.847,58.171,45.681,58.163,45.516,58.163L45.516,58.163z"/></g><path fill="#472b29" d="M55.219,61.69c-0.167,0-0.336-0.041-0.492-0.127c-0.491-0.272-0.667-0.89-0.395-1.38L56.3,56.63	c0.271-0.49,0.889-0.667,1.38-0.396c0.491,0.272,0.667,0.89,0.395,1.381l-1.969,3.552C55.922,61.501,55.575,61.69,55.219,61.69z"/><g><path fill="#605e60" d="M72.142,36.982v1.449c-0.494,0.948-1.015,1.916-1.557,2.897 c-6.234,11.25-12.638,19.313-14.71,18.162c-2.071-1.151,1.367-10.851,7.609-22.102c1.503-2.708,3.026-5.233,4.502-7.487 C70.464,31.296,72.142,33.95,72.142,36.982z"/></g><g><path fill="#d1dae7" d="M72.142,36.982v1.422c-0.305,0.582-0.616,1.178-0.934,1.774c-0.921-0.088-2.112-0.447-3.608-1.279 l-0.264-0.142c-1.57-0.9-2.579-1.753-3.188-2.538c1.286-2.241,2.593-4.359,3.872-6.295C70.477,31.323,72.142,33.963,72.142,36.982z"/><path fill="#472b29" d="M71.351,40.442l-0.166-0.016c-1.085-0.104-2.332-0.546-3.706-1.311l-0.26-0.14 c-1.491-0.855-2.589-1.73-3.268-2.605l-0.103-0.133l0.083-0.145c1.263-2.201,2.568-4.323,3.88-6.31l0.129-0.195l0.204,0.116 c2.621,1.494,4.249,4.283,4.249,7.277l-0.028,1.537c-0.305,0.583-0.617,1.18-0.935,1.776L71.351,40.442z M64.45,36.194 c0.646,0.781,1.658,1.569,3.011,2.345l0.257,0.138c1.246,0.694,2.371,1.108,3.35,1.233c0.28-0.526,0.555-1.052,0.825-1.568v-1.359 c0-2.737-1.448-5.293-3.795-6.725C66.865,32.134,65.639,34.129,64.45,36.194z"/></g><g><path fill="#605e60" d="M72.205,36.971v1.277c-1.004,0.055-2.39-0.43-3.831-1.263c-2.308-1.338-3.885-2.848-3.189-4.111 c0.662-1.195,1.338-2.349,2.014-3.448c1.156,0.492,2.177,1.242,2.991,2.176C71.444,33.042,72.205,34.921,72.205,36.971z"/><path fill="#472b29" d="M72.048,38.502c-0.999,0-2.348-0.462-3.799-1.301c-2.843-1.648-3.978-3.187-3.283-4.448 c0.65-1.173,1.33-2.337,2.021-3.458l0.113-0.184l0.198,0.084c1.173,0.499,2.239,1.274,3.081,2.242 c1.339,1.538,2.077,3.503,2.077,5.533v1.514l-0.236,0.014C72.163,38.501,72.106,38.502,72.048,38.502z M67.298,29.743 c-0.647,1.058-1.284,2.15-1.895,3.252c-0.719,1.305,1.631,2.924,3.096,3.773c1.33,0.769,2.552,1.204,3.456,1.232v-1.03 c0-1.909-0.694-3.758-1.954-5.205C69.256,30.909,68.325,30.213,67.298,29.743z"/></g><g><path fill="#472b29" d="M59.344,55.135c-0.053,0-0.105-0.017-0.15-0.051c-0.11-0.083-0.132-0.239-0.049-0.35 c0.029-0.039,2.956-3.923,5.023-7.274l0.363-0.591c0.073-0.118,0.227-0.156,0.344-0.083c0.118,0.071,0.155,0.226,0.083,0.343 l-0.364,0.593c-2.081,3.373-5.02,7.274-5.049,7.313C59.494,55.101,59.419,55.135,59.344,55.135z M65.773,45.534 c-0.043,0-0.087-0.011-0.127-0.035c-0.119-0.07-0.158-0.224-0.088-0.342c0.598-1.011,1.097-1.882,1.495-2.595 c0.067-0.121,0.219-0.166,0.34-0.096c0.121,0.067,0.164,0.22,0.096,0.34c-0.4,0.715-0.901,1.59-1.501,2.604 C65.942,45.49,65.859,45.534,65.773,45.534z M68.229,41.179c-0.04,0-0.079-0.009-0.116-0.028c-0.122-0.064-0.169-0.216-0.105-0.338 c0.151-0.289,0.228-0.44,0.229-0.441c0.063-0.124,0.213-0.172,0.336-0.109c0.124,0.062,0.173,0.213,0.11,0.336 c0,0-0.078,0.153-0.232,0.447C68.406,41.13,68.319,41.179,68.229,41.179z"/></g><g><path fill="#472b29" d="M70.178,36.902c-0.038,0-0.076-0.009-0.112-0.026c-0.124-0.062-0.173-0.212-0.112-0.335l1.321-2.642 c0.062-0.123,0.213-0.172,0.335-0.112c0.124,0.062,0.173,0.212,0.112,0.335l-1.321,2.642 C70.357,36.852,70.269,36.902,70.178,36.902z"/></g><g><path fill="#472b29" d="M56.318,60.1c-0.25,0-0.478-0.058-0.685-0.172c-3.152-1.753,3.177-15.145,7.414-22.781 c0.542-0.978,1.088-1.924,1.632-2.848c-0.282-0.714-0.128-1.267,0.066-1.619c0.642-1.158,1.318-2.315,2.009-3.439 c0.144-0.235,0.452-0.312,0.688-0.164c0.235,0.145,0.309,0.452,0.164,0.688c-0.683,1.111-1.351,2.256-1.985,3.399 c-0.093,0.168-0.188,0.449,0.065,0.934c0.08,0.153,0.075,0.337-0.013,0.486c-0.584,0.988-1.169,2-1.752,3.049 c-7.126,12.846-9.11,20.694-7.802,21.421c0.117,0.069,1.284,0.509,5.161-4.307c2.686-3.336,5.835-8.188,8.868-13.66 c0.519-0.939,1.019-1.868,1.495-2.778v-0.06c0-0.276,0.224-0.5,0.5-0.5s0.5,0.224,0.5,0.5v0.183c0,0.08-0.02,0.16-0.057,0.231 c-0.496,0.951-1.019,1.923-1.563,2.907c-3.061,5.522-6.244,10.424-8.964,13.804C59.509,58.541,57.619,60.1,56.318,60.1z"/></g></svg>